<?xml version="1.0" encoding="UTF-8" standalone="no"?>
<!DOCTYPE svg PUBLIC "-//W3C//DTD SVG 1.1//EN"
 "http://www.w3.org/Graphics/SVG/1.1/DTD/svg11.dtd">
<!-- Generated by graphviz version 2.43.0 (0)
 -->
<!-- Title: snakemake_dag Pages: 1 -->
<svg width="612pt" height="188pt"
 viewBox="0.00 0.00 612.00 188.00" xmlns="http://www.w3.org/2000/svg" xmlns:xlink="http://www.w3.org/1999/xlink">
<g id="graph0" class="graph" transform="scale(1 1) rotate(0) translate(4 184)">
<title>snakemake_dag</title>
<polygon fill="white" stroke="transparent" points="-4,4 -4,-184 608,-184 608,4 -4,4"/>
<!-- 0 -->
<g id="node1" class="node">
<title>0</title>
<path fill="none" stroke="#c6d856" stroke-width="2" d="M431,-36C431,-36 401,-36 401,-36 395,-36 389,-30 389,-24 389,-24 389,-12 389,-12 389,-6 395,0 401,0 401,0 431,0 431,0 437,0 443,-6 443,-12 443,-12 443,-24 443,-24 443,-30 437,-36 431,-36"/>
<text text-anchor="middle" x="416" y="-15.5" font-family="sans" font-size="10.00">all</text>
</g>
<!-- 1 -->
<g id="node2" class="node">
<title>1</title>
<path fill="none" stroke="#78d856" stroke-width="2" d="M217,-108C217,-108 39,-108 39,-108 33,-108 27,-102 27,-96 27,-96 27,-84 27,-84 27,-78 33,-72 39,-72 39,-72 217,-72 217,-72 223,-72 229,-78 229,-84 229,-84 229,-96 229,-96 229,-102 223,-108 217,-108"/>
<text text-anchor="middle" x="128" y="-93" font-family="sans" font-size="10.00">msa_clustalo_ebi</text>
<text text-anchor="middle" x="128" y="-82" font-family="sans" font-size="10.00">fasta_seqs: COG5002_members_1762</text>
</g>
<!-- 1&#45;&gt;0 -->
<g id="edge1" class="edge">
<title>1&#45;&gt;0</title>
<path fill="none" stroke="grey" stroke-width="2" d="M198.08,-71.97C255.2,-58.08 333.61,-39.03 379.14,-27.96"/>
<polygon fill="grey" stroke="grey" stroke-width="2" points="379.99,-31.36 388.88,-25.59 378.33,-24.55 379.99,-31.36"/>
</g>
<!-- 2 -->
<g id="node3" class="node">
<title>2</title>
<path fill="none" stroke="#56d8c9" stroke-width="2" d="M240,-180C240,-180 12,-180 12,-180 6,-180 0,-174 0,-168 0,-168 0,-156 0,-156 0,-150 6,-144 12,-144 12,-144 240,-144 240,-144 246,-144 252,-150 252,-156 252,-156 252,-168 252,-168 252,-174 246,-180 240,-180"/>
<text text-anchor="middle" x="126" y="-165" font-family="sans" font-size="10.00">eggnog_get_fasta</text>
<text text-anchor="middle" x="126" y="-154" font-family="sans" font-size="10.00">eggnog_member_list: COG5002_members_1762</text>
</g>
<!-- 2&#45;&gt;1 -->
<g id="edge5" class="edge">
<title>2&#45;&gt;1</title>
<path fill="none" stroke="grey" stroke-width="2" d="M126.49,-143.7C126.71,-135.98 126.98,-126.71 127.23,-118.11"/>
<polygon fill="grey" stroke="grey" stroke-width="2" points="130.72,-118.2 127.51,-108.1 123.73,-118 130.72,-118.2"/>
</g>
<!-- 3 -->
<g id="node4" class="node">
<title>3</title>
<path fill="none" stroke="#78d856" stroke-width="2" d="M426,-108C426,-108 260,-108 260,-108 254,-108 248,-102 248,-96 248,-96 248,-84 248,-84 248,-78 254,-72 260,-72 260,-72 426,-72 426,-72 432,-72 438,-78 438,-84 438,-84 438,-96 438,-96 438,-102 432,-108 426,-108"/>
<text text-anchor="middle" x="343" y="-93" font-family="sans" font-size="10.00">msa_clustalo_ebi</text>
<text text-anchor="middle" x="343" y="-82" font-family="sans" font-size="10.00">fasta_seqs: uniprot_COG5002_1762</text>
</g>
<!-- 3&#45;&gt;0 -->
<g id="edge2" class="edge">
<title>3&#45;&gt;0</title>
<path fill="none" stroke="grey" stroke-width="2" d="M361.04,-71.7C370.06,-63.05 381.12,-52.45 390.94,-43.03"/>
<polygon fill="grey" stroke="grey" stroke-width="2" points="393.37,-45.55 398.16,-36.1 388.52,-40.5 393.37,-45.55"/>
</g>
<!-- 4 -->
<g id="node5" class="node">
<title>4</title>
<path fill="none" stroke="#d85656" stroke-width="2" d="M408,-180C408,-180 282,-180 282,-180 276,-180 270,-174 270,-168 270,-168 270,-156 270,-156 270,-150 276,-144 282,-144 282,-144 408,-144 408,-144 414,-144 420,-150 420,-156 420,-156 420,-168 420,-168 420,-174 414,-180 408,-180"/>
<text text-anchor="middle" x="345" y="-165" font-family="sans" font-size="10.00">uniprot_get_fasta</text>
<text text-anchor="middle" x="345" y="-154" font-family="sans" font-size="10.00">fasta_seqs: COG5002_1762</text>
</g>
<!-- 4&#45;&gt;3 -->
<g id="edge6" class="edge">
<title>4&#45;&gt;3</title>
<path fill="none" stroke="grey" stroke-width="2" d="M344.51,-143.7C344.29,-135.98 344.02,-126.71 343.77,-118.11"/>
<polygon fill="grey" stroke="grey" stroke-width="2" points="347.27,-118 343.49,-108.1 340.28,-118.2 347.27,-118"/>
</g>
<!-- 5 -->
<g id="node6" class="node">
<title>5</title>
<path fill="none" stroke="#d8a456" stroke-width="2" d="M512,-108C512,-108 468,-108 468,-108 462,-108 456,-102 456,-96 456,-96 456,-84 456,-84 456,-78 462,-72 468,-72 468,-72 512,-72 512,-72 518,-72 524,-78 524,-84 524,-84 524,-96 524,-96 524,-102 518,-108 512,-108"/>
<text text-anchor="middle" x="490" y="-87.5" font-family="sans" font-size="10.00">pfam_json</text>
</g>
<!-- 5&#45;&gt;0 -->
<g id="edge3" class="edge">
<title>5&#45;&gt;0</title>
<path fill="none" stroke="grey" stroke-width="2" d="M471.71,-71.7C462.57,-63.05 451.36,-52.45 441.4,-43.03"/>
<polygon fill="grey" stroke="grey" stroke-width="2" points="443.75,-40.43 434.08,-36.1 438.94,-45.52 443.75,-40.43"/>
</g>
<!-- 6 -->
<g id="node7" class="node">
<title>6</title>
<path fill="none" stroke="#56a2d8" stroke-width="2" d="M578.5,-180C578.5,-180 487.5,-180 487.5,-180 481.5,-180 475.5,-174 475.5,-168 475.5,-168 475.5,-156 475.5,-156 475.5,-150 481.5,-144 487.5,-144 487.5,-144 578.5,-144 578.5,-144 584.5,-144 590.5,-150 590.5,-156 590.5,-156 590.5,-168 590.5,-168 590.5,-174 584.5,-180 578.5,-180"/>
<text text-anchor="middle" x="533" y="-165" font-family="sans" font-size="10.00">interproscan_search</text>
<text text-anchor="middle" x="533" y="-154" font-family="sans" font-size="10.00">prot: phoR</text>
</g>
<!-- 6&#45;&gt;5 -->
<g id="edge7" class="edge">
<title>6&#45;&gt;5</title>
<path fill="none" stroke="grey" stroke-width="2" d="M522.37,-143.7C517.37,-135.56 511.31,-125.69 505.79,-116.7"/>
<polygon fill="grey" stroke="grey" stroke-width="2" points="508.72,-114.79 500.51,-108.1 502.76,-118.46 508.72,-114.79"/>
</g>
<!-- 7 -->
<g id="node8" class="node">
<title>7</title>
<path fill="none" stroke="#56d87b" stroke-width="2" d="M592,-108C592,-108 554,-108 554,-108 548,-108 542,-102 542,-96 542,-96 542,-84 542,-84 542,-78 548,-72 554,-72 554,-72 592,-72 592,-72 598,-72 604,-78 604,-84 604,-84 604,-96 604,-96 604,-102 598,-108 592,-108"/>
<text text-anchor="middle" x="573" y="-87.5" font-family="sans" font-size="10.00">pfam_tsv</text>
</g>
<!-- 6&#45;&gt;7 -->
<g id="edge8" class="edge">
<title>6&#45;&gt;7</title>
<path fill="none" stroke="grey" stroke-width="2" d="M542.89,-143.7C547.49,-135.64 553.06,-125.89 558.15,-116.98"/>
<polygon fill="grey" stroke="grey" stroke-width="2" points="561.3,-118.52 563.23,-108.1 555.23,-115.05 561.3,-118.52"/>
</g>
<!-- 7&#45;&gt;0 -->
<g id="edge4" class="edge">
<title>7&#45;&gt;0</title>
<path fill="none" stroke="grey" stroke-width="2" d="M541.98,-75.17C516.16,-63.66 479.36,-47.25 452.2,-35.14"/>
<polygon fill="grey" stroke="grey" stroke-width="2" points="453.59,-31.93 443.03,-31.05 450.73,-38.32 453.59,-31.93"/>
</g>
</g>
</svg>
