<?xml version="1.0" encoding="UTF-8" standalone="no"?>
<!DOCTYPE svg PUBLIC "-//W3C//DTD SVG 1.1//EN"
 "http://www.w3.org/Graphics/SVG/1.1/DTD/svg11.dtd">
<!-- Generated by graphviz version 2.43.0 (0)
 -->
<!-- Title: snakemake_dag Pages: 1 -->
<svg width="446pt" height="188pt"
 viewBox="0.00 0.00 446.00 188.00" xmlns="http://www.w3.org/2000/svg" xmlns:xlink="http://www.w3.org/1999/xlink">
<g id="graph0" class="graph" transform="scale(1 1) rotate(0) translate(4 184)">
<title>snakemake_dag</title>
<polygon fill="white" stroke="transparent" points="-4,4 -4,-184 442,-184 442,4 -4,4"/>
<!-- 0 -->
<g id="node1" class="node">
<title>0</title>
<path fill="none" stroke="#59d856" stroke-width="2" d="M250,-36C250,-36 220,-36 220,-36 214,-36 208,-30 208,-24 208,-24 208,-12 208,-12 208,-6 214,0 220,0 220,0 250,0 250,0 256,0 262,-6 262,-12 262,-12 262,-24 262,-24 262,-30 256,-36 250,-36"/>
<text text-anchor="middle" x="235" y="-15.5" font-family="sans" font-size="10.00">all</text>
</g>
<!-- 1 -->
<g id="node2" class="node">
<title>1</title>
<path fill="none" stroke="#d6d856" stroke-width="2" d="M216,-108C216,-108 38,-108 38,-108 32,-108 26,-102 26,-96 26,-96 26,-84 26,-84 26,-78 32,-72 38,-72 38,-72 216,-72 216,-72 222,-72 228,-78 228,-84 228,-84 228,-96 228,-96 228,-102 222,-108 216,-108"/>
<text text-anchor="middle" x="127" y="-93" font-family="sans" font-size="10.00">msa_clustalo_ebi</text>
<text text-anchor="middle" x="127" y="-82" font-family="sans" font-size="10.00">fasta_seqs: COG5002_members_1762</text>
</g>
<!-- 1&#45;&gt;0 -->
<g id="edge1" class="edge">
<title>1&#45;&gt;0</title>
<path fill="none" stroke="grey" stroke-width="2" d="M153.42,-71.88C167.41,-62.81 184.78,-51.55 199.89,-41.76"/>
<polygon fill="grey" stroke="grey" stroke-width="2" points="201.99,-44.57 208.48,-36.19 198.18,-38.69 201.99,-44.57"/>
</g>
<!-- 2 -->
<g id="node3" class="node">
<title>2</title>
<path fill="none" stroke="#d85656" stroke-width="2" d="M240,-180C240,-180 12,-180 12,-180 6,-180 0,-174 0,-168 0,-168 0,-156 0,-156 0,-150 6,-144 12,-144 12,-144 240,-144 240,-144 246,-144 252,-150 252,-156 252,-156 252,-168 252,-168 252,-174 246,-180 240,-180"/>
<text text-anchor="middle" x="126" y="-165" font-family="sans" font-size="10.00">eggnog_get_fasta</text>
<text text-anchor="middle" x="126" y="-154" font-family="sans" font-size="10.00">eggnog_member_list: COG5002_members_1762</text>
</g>
<!-- 2&#45;&gt;1 -->
<g id="edge3" class="edge">
<title>2&#45;&gt;1</title>
<path fill="none" stroke="grey" stroke-width="2" d="M126.25,-143.7C126.36,-135.98 126.49,-126.71 126.61,-118.11"/>
<polygon fill="grey" stroke="grey" stroke-width="2" points="130.11,-118.15 126.76,-108.1 123.11,-118.05 130.11,-118.15"/>
</g>
<!-- 3 -->
<g id="node4" class="node">
<title>3</title>
<path fill="none" stroke="#d6d856" stroke-width="2" d="M426,-108C426,-108 260,-108 260,-108 254,-108 248,-102 248,-96 248,-96 248,-84 248,-84 248,-78 254,-72 260,-72 260,-72 426,-72 426,-72 432,-72 438,-78 438,-84 438,-84 438,-96 438,-96 438,-102 432,-108 426,-108"/>
<text text-anchor="middle" x="343" y="-93" font-family="sans" font-size="10.00">msa_clustalo_ebi</text>
<text text-anchor="middle" x="343" y="-82" font-family="sans" font-size="10.00">fasta_seqs: uniprot_COG5002_1762</text>
</g>
<!-- 3&#45;&gt;0 -->
<g id="edge2" class="edge">
<title>3&#45;&gt;0</title>
<path fill="none" stroke="grey" stroke-width="2" d="M316.58,-71.88C302.59,-62.81 285.22,-51.55 270.11,-41.76"/>
<polygon fill="grey" stroke="grey" stroke-width="2" points="271.82,-38.69 261.52,-36.19 268.01,-44.57 271.82,-38.69"/>
</g>
<!-- 4 -->
<g id="node5" class="node">
<title>4</title>
<path fill="none" stroke="#56d8d8" stroke-width="2" d="M408,-180C408,-180 282,-180 282,-180 276,-180 270,-174 270,-168 270,-168 270,-156 270,-156 270,-150 276,-144 282,-144 282,-144 408,-144 408,-144 414,-144 420,-150 420,-156 420,-156 420,-168 420,-168 420,-174 414,-180 408,-180"/>
<text text-anchor="middle" x="345" y="-165" font-family="sans" font-size="10.00">uniprot_get_fasta</text>
<text text-anchor="middle" x="345" y="-154" font-family="sans" font-size="10.00">fasta_seqs: COG5002_1762</text>
</g>
<!-- 4&#45;&gt;3 -->
<g id="edge4" class="edge">
<title>4&#45;&gt;3</title>
<path fill="none" stroke="grey" stroke-width="2" d="M344.51,-143.7C344.29,-135.98 344.02,-126.71 343.77,-118.11"/>
<polygon fill="grey" stroke="grey" stroke-width="2" points="347.27,-118 343.49,-108.1 340.28,-118.2 347.27,-118"/>
</g>
</g>
</svg>
